<?xml version="1.0" encoding="utf-8"?>
<!-- Generator: Adobe Illustrator 23.0.2, SVG Export Plug-In . SVG Version: 6.00 Build 0)  -->
<svg version="1.1" id="Layer_1" xmlns="http://www.w3.org/2000/svg" xmlns:xlink="http://www.w3.org/1999/xlink" x="0px" y="0px"
	 viewBox="0 0 879 420.1" style="enable-background:new 0 0 879 420.1;" xml:space="preserve">
<style type="text/css">
	.st0{fill:#575C4A;}
</style>
<g>
	<path class="st0" d="M879,420.1c-292.9,0-585.8,0-879,0c0-127,0-254,0-381c1.3-0.3,2.6-0.4,3.8-0.9c47.9-19,97.3-31.9,148.8-36.2
		c38.3-3.3,76.6-2.4,114.7,2.6c59.7,7.9,114.1,29.5,163.9,63.1c35.6,24,67.9,52.1,100.1,80.4c35.9,31.6,71.7,63.3,110.6,91.3
		c28.7,20.6,58.1,40.2,86.1,61.7c50.1,38.4,99.4,77.9,149,117C877.8,418.5,878.3,419.4,879,420.1z"/>
</g>
</svg>
