<svg data-name="Layer 1" xmlns="http://www.w3.org/2000/svg" viewBox="0 0 77.91 89.308"><path d="M26.353 10.334C27.768 1.278 29.16.019 37.193 0c12.45-.028 13.239.493 14.842 10.338 3.681 0 7.471-.008 11.261.003 3.682.01 7.002.681 8.58 4.629 1.733 4.339.577 10.194-2.113 13.117a10.17 10.17 0 0 0-2.526 5.285c-.404 3.284.002 6.658-.14 9.985-.227 5.305-.703 10.147 5.874 12.92 2.374 1 3.814 5.6 4.517 8.812.767 3.5.276 7.298.165 10.961-.148 4.863-2.447 7.04-7.289 7.894-1.696.298-3.22 1.605-4.806 2.483-.278.155-.454.485-.703.704-2.614 2.306-13.216 2.677-18.6.414a.655.655 0 0 1 .14-1.24l6.614-1.344c.355-7.046 1.282-14.237-5.596-19.32a13.813 13.813 0 0 0-15.939-.356c-7.366 4.975-6.522 12.34-5.908 19.762l6.5 1.069a1.024 1.024 0 0 1 .846.857l.034.228a.424.424 0 0 1-.186.414c-.754.513-1.5 1.267-2.27 1.29-4.327.136-8.913.936-12.932-.193-5.1-1.433-9.747-4.483-14.57-6.877a3.235 3.235 0 0 1-1.006-1.094c-4.686-6.66-.505-22.94 6.713-26.847a5.164 5.164 0 0 0 2.421-3.577c.253-5.99.186-11.996.054-17.993-.025-1.166-.508-2.854-1.353-3.379-4.15-2.577-4.165-6.527-3.958-10.593.261-5.121 2.642-7.582 7.739-7.957 2.155-.159 4.33-.054 6.497-.061 1.981-.006 3.963-.001 6.258-.001Zm5.405 32.061c.142-3.39 1.584-5.447 5.51-4.86 3.849.573 9.232-2.113 9.496 4.893 13.581 1.497 18.6-2.464 16.223-12.435h-48.07c-.666 10.984 3.571 14.047 16.84 12.402Zm21.15 23.028v-18.84c-3.515-.6-6.325-1.013-8.808 2.52a6.226 6.226 0 0 1-9.965-.115c-2.512-3.5-5.242-3.162-8.537-2.236v18.61c9.311-7.941 18.182-7.625 27.31.061ZM25.525 25.637H52.95v-11.29H25.526ZM14.684 43.34c0 12.874.005 25.154-.002 37.434-.003 4.968 3.067 4.938 6.752 4.536V46.417ZM56.81 85.283c3.368.36 6.666.628 6.744-3.357.247-12.707.091-25.422.091-38.538l-6.835 3.085ZM10.957 57.037c-4.58 1.447-6.495 4.254-6.649 8.292-.12 3.14-.121 6.287-.05 9.428.115 5.085.998 5.733 6.699 4.928Zm56.497.027v22.733c4.842 1.23 6.875-.501 6.686-5.155-.128-3.138.047-6.29-.098-9.427-.184-4.01-2.116-6.78-6.588-8.15Zm-46.002-44.05c-4.331 1.033-8.462 1.08-11.185 3.063-1.357.988-1.196 7.287.137 8.087 3.005 1.804 7.167 1.679 11.048 2.373Zm35.464 13.822c4.102-.93 8.276-.997 11.203-2.94 1.306-.867 1.162-7.282-.172-8.077-3.012-1.794-7.175-1.658-11.03-2.335ZM30.93 10.029h16.48c1.252-4.884-.709-6.767-5.22-6.6a77.081 77.081 0 0 1-5.94-.002c-4.469-.18-6.554 1.613-5.32 6.602Zm4.982 31.175c-.386 3.235-.641 6.649 3.362 6.55 3.952-.099 3.525-3.474 3.181-6.55Z"/><path d="M47.098 72.684h-14.61c1.92-3.498 9.834-3.89 14.61 0Z"/></svg>