<svg id="Layer_1" data-name="Layer 1" xmlns="http://www.w3.org/2000/svg" viewBox="0 0 77.90998 89.30793"><title>icon-backpack</title><path d="M334.67341,154.33279c1.41438-9.05538,2.806-10.31441,10.84031-10.33274,12.44845-.0284,13.23825.4933,14.84115,10.33822,3.68119,0,7.4714-.00809,11.26156.00231,3.68144.0101,7.00192.68179,8.57894,4.629,1.73355,4.339.5773,10.19455-2.11239,13.117a10.16937,10.16937,0,0,0-2.52577,5.2858c-.404,3.28355.00145,6.65746-.14078,9.98461-.22679,5.30476-.7029,10.14686,5.87432,12.91981,2.37453,1.0011,3.81409,5.60049,4.51749,8.81252.76638,3.49973.276,7.29793.1647,10.96088-.14771,4.863-2.4466,7.04068-7.28863,7.89338-1.69675.29881-3.22089,1.60538-4.80616,2.48372-.27853.15433-.45392.48451-.70289.704-2.61453,2.3055-13.21657,2.67685-18.60115.41342a.65522.65522,0,0,1,.14042-1.24057l6.6141-1.343c.35577-7.04583,1.2822-14.23726-5.59513-19.32043a13.81324,13.81324,0,0,0-15.939-.35523c-7.3669,4.97444-6.52234,12.34013-5.9087,19.76122l6.4996,1.06908a1.02382,1.02382,0,0,1,.84612.857l.03453.22808a.42389.42389,0,0,1-.18619.4138c-.75381.51381-1.50013,1.26692-2.26927,1.291-4.3278.13542-8.91332.93534-12.93214-.19362-5.0998-1.43263-9.74773-4.48322-14.57015-6.87715a3.23494,3.23494,0,0,1-1.00661-1.09419c-4.68558-6.65994-.50444-22.93886,6.7133-26.84615a5.16361,5.16361,0,0,0,2.42114-3.5775c.25251-5.98917.18574-11.99636.05411-17.99323-.02559-1.16566-.50857-2.85406-1.35351-3.37879-4.15017-2.57736-4.165-6.52715-3.95761-10.59292.2612-5.12144,2.64209-7.58188,7.73874-7.957,2.15563-.15865,4.33095-.05425,6.49735-.06111C330.39649,154.32785,332.37781,154.33279,334.67341,154.33279Zm5.40426,32.06148c.1428-3.39044,1.58432-5.44708,5.51128-4.861,3.84762.5742,9.231-2.11256,9.49461,4.894,13.5818,1.49668,18.6-2.46466,16.22393-12.43476h-48.0697C322.57092,184.9758,326.808,188.03908,340.07767,186.39427Zm21.14956,23.028v-18.84c-3.51424-.59928-6.32434-1.01348-8.80731,2.51944a6.226,6.226,0,0,1-9.96506-.11459c-2.51226-3.5006-5.24217-3.162-8.53672-2.23628v18.6103C343.22918,201.42006,352.09953,201.73641,361.22723,209.42229Zm-27.38086-39.786h27.42281V158.34576H333.84637ZM323.004,187.33768c0,12.87445.00457,25.15423-.00223,37.434-.00275,4.9679,3.06709,4.93807,6.75178,4.53606V190.41592Zm42.12566,41.94487c3.368.35907,6.66643.62756,6.74407-3.35756.24754-12.70721.09176-25.42227.09176-38.53746l-6.83583,3.08477Zm-45.85313-28.24631c-4.5789,1.44669-6.49414,4.254-6.64836,8.29211-.11989,3.139-.12138,6.28679-.05041,9.42785.11488,5.08513.99871,5.733,6.69877,4.92758Zm56.49731.027V223.796c4.84175,1.22949,6.87535-.50135,6.68612-5.15445-.12765-3.13872.04676-6.29026-.09773-9.42761C382.17753,205.20356,380.24585,202.4349,375.77383,201.06326Zm-46.00167-44.04989c-4.33126,1.03256-8.4626,1.08035-11.18527,3.06278-1.35678.9879-1.19592,7.2869.1371,8.08707,3.00465,1.8036,7.16688,1.67878,11.04817,2.37261ZM365.23628,170.835c4.10221-.92986,8.27535-.99673,11.20275-2.94013,1.30565-.86677,1.16209-7.282-.17181-8.07655-3.01241-1.79445-7.175-1.65812-11.03094-2.33558Zm-25.98736-16.80662h16.48064c1.25171-4.88434-.70926-6.7672-5.22018-6.60052-1.978.07309-3.96354.0781-5.941-.0015C340.10019,147.24646,338.01538,149.03881,339.24892,154.02834Zm4.98224,31.1748c-.38624,3.23475-.64163,6.64864,3.36148,6.54916,3.9528-.09822,3.52556-3.47377,3.18158-6.54916Z" transform="translate(-308.32 -143.99907)"/><path d="M355.41773,216.68283h-14.609C342.72759,213.18488,350.64189,212.79374,355.41773,216.68283Z" transform="translate(-308.32 -143.99907)"/></svg>