<?xml version="1.0" encoding="utf-8"?>
<!-- Generator: Adobe Illustrator 23.0.2, SVG Export Plug-In . SVG Version: 6.00 Build 0)  -->
<svg version="1.1" id="Layer_1" xmlns="http://www.w3.org/2000/svg" xmlns:xlink="http://www.w3.org/1999/xlink" x="0px" y="0px"
	 viewBox="0 0 91 76.2" style="enable-background:new 0 0 91 76.2;" xml:space="preserve">
<path d="M69,68.8c-3.2,1-6.3,2.3-9.4-0.5c-0.5-0.4-2.3,0-3,0.6c-1.4,1.2-2.7,2.6-3.9,4c5.7,1.7,11.6-0.5,16.8,2.2
	c-4.5,1.5-9,1-13.5,1.1c-4.7,0.1-9.3,0-14,0H27.4c-4.7,0-9.3,0.1-14,0C8.9,76,4.3,76.5,0,75.8c2.3-4,4.4-7.4,6.3-10.9
	c1.9-3.5,3.7-7.1,5.3-10.7c1.2-2.6,2.6-4.3,5.8-2.3c2.9-5.8,5.7-11.3,8.4-16.8c2.6-5,2.8-5.1,8.2-2.8c1.4-2.6,2.6-5.3,4.1-7.9
	c1.4-2.3,1.5-6.2,5.1-6c3.5,0.1,3.6,3.9,5,6.2c1.8,3.1,3.3,6.4,5.3,10.3c1.2-2.5,2.4-4.9,3.9-7.3c1.1-1.7,2.5-3.8,4.2-4.3
	c2.6-0.7,3.4,2.2,4.3,4c4.2,8.2,8.2,16.3,12.3,24.5c1.9,3.7,3.8,7.4,5.6,11.1c1.1,2.2,2,4.4,4.8,5.3c1.1,0.3,2.3,2.6,2.2,3.9
	c-0.1,1.3-1.8,3.4-2.9,3.5c-4.7,0.4-9.5,0.2-14.2-0.5c4.4-3.1,9.7-0.5,14.8-2.5c-0.7-1-1-1.9-1.7-2.3c-3.5-1.9-7.1-3.5-10.6-5.4
	c-2.5-1.3-4.3-1.2-6.1,1.1C69.8,67,69.4,67.9,69,68.8z M34.5,73.4c4.3-8.6,8.1-17.3,13-25.4c4.3-7,4.8-13.2-0.1-19.9
	c-1.6-2.1-2.6-4.6-4.2-7.6c-2.1,4.2-3.7,7.4-5.5,10.6c-0.8,1.4-1.7,3.3-3,3.7c-1.4,0.5-3.3-0.5-5.2-0.9L18.6,55.5l9,17.9L34.5,73.4z
	 M48.6,73.3c2.3-2.4,4.1-4.3,5.9-6.1c2-2.1,4.2-2.7,6.7-1.1c2.9,1.9,5,1.5,7.2-1.3c2.9-3.8,5.8-4.1,10-1.5c0.8,0.5,1.7,0.9,2.6,1.2
	l0.6-0.7c-3.8-7.6-7.7-15.2-11.5-22.9c-6.4,5-6.4,5-10.9,2.1l-8,3L37.4,73.3H48.6z M62.4,26.1L61.1,26c-2.5,5.3-5.7,10.3-7.3,16.4
	c3.5-3.7,6.6-2.3,9.8,0.6l4.9-5.1C66.3,33.7,64.4,29.9,62.4,26.1z M5.4,73.2h19.1l-4.7-9.4c-2.7,2.9-5,1.5-6.7,0.2
	C8.2,65.4,6.8,69,5.4,73.2z M15,53.7c-1.4,2.6-2.4,4.6-3.4,6.5l5.5,2.7C19.3,59.2,15.9,57.2,15,53.7L15,53.7z"/>
<path d="M30.6,9.1c-3.3-2.4-6.4-5.9-10.3-1.8c-1.8,1.7-2.1,4.5-0.6,6.4c3.7,5.2,7.4,1.1,11.1-0.8c-0.9,4.3-3.8,6.4-7.7,5.8
	c-4.2-0.6-7.1-4.3-6.8-8.5c0.3-4.2,3.9-7.4,8-7.2C28.4,3.2,30.5,5.1,30.6,9.1z"/>
<path d="M10.3,10.3h4.2l0.1,1.4L10.4,12L10.3,10.3z"/>
<path d="M33.9,9.8l4.4,0.4l-0.1,1.4h-4.6L33.9,9.8z"/>
<path d="M23.5,24.9l-0.3-4.4c2.8,1.2,2.3,2.8,1.6,4.3L23.5,24.9z"/>
<path d="M29.7,4.1L33.4,0C33.9,3.4,33.9,3.4,29.7,4.1z"/>
<path d="M18.7,17.9l-3.9,3.4l-0.8-1C14.4,18.6,15,17.1,18.7,17.9z"/>
<path d="M14.9,0.3l3.6,3.4c-3.4,1.1-4-0.5-4.6-2.2L14.9,0.3z"/>
<path d="M31.5,17l3.2,3l-1.1,1.2l-3.4-2.8L31.5,17z"/>
</svg>
