<svg data-name="Layer 1" xmlns="http://www.w3.org/2000/svg" viewBox="0 0 89.63 87.406"><path d="M0 85.148l6.638-1.272c0-11.463.008-23.083-.025-34.703-.002-.603-.195-1.584-.577-1.75-5.171-2.251-3.605-6.85-3.924-10.824-.394-4.91-.657-9.848-1.418-14.705-1.044-6.661.517-8.5 9.224-9.522C9.438 6.96 10.44 1.64 16.42.224a12.914 12.914 0 019.492 2.063c4.335 3.215 3.686 8.11 1.382 12.772 1.74.965 3.776 1.452 4.751 2.741 5.143 6.796 11.619 9.596 20.209 8.687 3.595-.38 4.746 2.775 4.466 6.316-.645 8.173-1.09 16.362-1.617 24.545l1.484.4c3.239-5.662 6.461-11.332 9.72-16.98 3.137-5.437 4.968-5.444 8.077.001q6.804 11.914 13.512 23.882a39.57 39.57 0 011.733 4.065l-1.408.873a21.706 21.706 0 01-2.51-2.925c-2.296-3.858-4.605-7.72-6.636-11.72-1.274-2.51-2.811-3.966-5.784-3.506-3.475.538-8.79-.291-10.115 1.651-4.043 5.92-9.666 11.846-7.258 20.067 2.4.868 5.239 1.1 6.86 2.625 5.594 5.262 12.12 6.268 19.334 5.636a54.652 54.652 0 017.352.307l.03 1.943c-1.64.22-3.274.563-4.921.642-8.514.408-16.985.751-23.648-6.206-.855-.893-2.749-1.034-4.178-1.089-4.156-.159-8.35.209-12.477-.187-7.747-.742-14.536.258-18.567 7.985a4.572 4.572 0 01-1.401 1.402C21.727 88.1 3.787 87.749 0 85.148zm36.005-18.965c.12-1.497.31-2.794.312-4.091a85.338 85.338 0 00-.185-9.48c-.524-4.725-3.68-7.415-8.642-7.02-5.848.464-11.652 1.491-17.527 2.282v28.55c7.241.933 7.22.931 7.616-5.936.249-4.32.69-8.634.825-12.957.097-3.11 1.32-4.452 4.552-4.444 3.252.01 4.403 1.56 4.68 4.505.273 2.909.793 5.794 1.191 8.59zm8.787 8.14l1.536-.653V37.568l-14.326-3.362c-.672 6.73-.45 6.535 3.991 11.583 1.72 1.956 2.643 4.939 3.1 7.596.527 3.076-.544 6.51.317 9.424 1.187 4.017 3.533 7.692 5.382 11.513zM6.552 34.335c-2.387 5.517-1.899 9.558.979 9.736 4.922.305 9.877.084 15.048.084v-9.001l-.99-.448-3.41 5.305-2.652-6.15-6.491 5.244zm15.816-9.395H5.83c-1.247 6.202-.494 7.238 5.097 7.306q2.993.037 5.986.001c5.807-.062 6.29-.68 5.455-7.307zm1.509-3.552l1.284-1.246c-1.067-1.44-2.05-4.04-3.213-4.124-5.907-.424-11.86-.195-18.017-.195v5.565zm3.83 56.312c-4.098-6.753-.012-15.266-5.394-21.564a97.077 97.077 0 00-1.939 19.597c.03 1.817 2.728 3.59 4.359 5.574zm-8.214-64.938c5.949.057 6.45-.246 6.458-3.715a6.553 6.553 0 00-6.516-6.658 6.852 6.852 0 00-6.625 6.672c.167 5.231 4.232 3.26 6.683 3.701zM50.33 36.076v38.47c3.106-4.287 2.997-35.158 0-38.47zm-21.538 7.109c0-3.421-.049-5.869.013-8.314.064-2.506.236-5.01.315-6.585l6.005-.805-6.483-9.793c-3.743 11.673-3.906 22.086.15 25.497zm11.746 30.39c-1.301-4.623-2.73-5.041-11.277-3.665-.332 4.575.77 4.948 11.277 3.664zM21.27 84.085c-.904-3.965-4.247-5.47-9.555-4.01-1.023.281-1.57 2.291-2.658 4.01zm14.395-50.98c3.785 0 7.122.07 10.44-.153.225-.015.304-2.217.652-5.01-3.8 3.382-8.814-2.317-11.092 5.163zm39.47 15.116l-4.876-8.437-4.717 8.437zm6.953-32.392a8.633 8.633 0 01-8.85 8.75 8.815 8.815 0 01.106-17.63 8.695 8.695 0 018.744 8.88zm-2.796 1.664c-.475-5.416-2.463-7.627-6.22-7.502-3.474.116-5.548 2.22-5.51 5.773.041 3.782 2.295 6.289 5.941 5.604 2.354-.442 4.34-2.847 5.789-3.875z"/></svg>