<svg id="Layer_1" data-name="Layer 1" xmlns="http://www.w3.org/2000/svg" viewBox="0 0 23.61695 13.40051"><title>logo</title><path d="M184.36,304.51559c.287.35694,1.75147,2.50048,2.62027,3.75552.46763.67551.91289,1.36656,1.38443,2.03926a5.08817,5.08817,0,0,0,.53623.55119c.59779-.86687,1.14923-1.66148,1.69456-2.46025.17626-.25817.31448-.54487.50853-.78782a.797.797,0,0,1,1.41.05486c.73657,1.01636,1.44106,2.056,2.15713,3.08717.26834.38643.54078.77063.791,1.16865.07158.11389.18056.29077.10467.41087a.38943.38943,0,0,1-.43291.08249c-.70211-.64122-1.83779-.45942-2.44405-1.3124-.10658-.14995-.51591-.09265-.78671-.11633-.58058-.05078-1.18274.17037-1.74-.21434a.449.449,0,0,0-.61528.21206c-.1247.19827-.22807.41-.337.60862.27522.38033.53771.77537.81089,1.15688.3655.51042.05522,1.03169-.17012.802-.13119-.13372-1.16542-1.69129-1.6876-2.44846a.78161.78161,0,0,0-1.02806-.38731,1.78034,1.78034,0,0,1-1.74664-.49215,9.28967,9.28967,0,0,0-.76623-.54283,1.46145,1.46145,0,0,0-1.63326-.09883,2.7955,2.7955,0,0,1-1.37577.19342,1.18778,1.18778,0,0,0-1.33588.72788c-.12122.257-.40316.52272-.58.43577-.37487-.18437-.09135-.54873.09007-.81621.79114-1.16644,1.57056-2.34084,2.36572-3.50451.48476-.70941,1.33007-1.91687,1.48669-2.1061A.42353.42353,0,0,1,184.36,304.51559Zm-3.143,4.57386a2.46485,2.46485,0,0,0,.76438.19737,3.89293,3.89293,0,0,0,.88061-.2906,2.22311,2.22311,0,0,1,2.33425.31192c.24594.19415.51505.35885.77252.53851a1.20163,1.20163,0,0,0,1.3618.02816L184.11,305.25408a.125.125,0,0,0-.20486-.00027Zm13.0549,2.19527a30.27211,30.27211,0,0,0-2.32521-3.286.22687.22687,0,0,0-.36642.05533,11.179,11.179,0,0,0-1.23486,2.08739c.45832.23655.79462.4942,1.34716.21476a1.48218,1.48218,0,0,1,1.62764.38453A5.47273,5.47273,0,0,0,194.27188,311.28472Z" transform="translate(-175.23937 -304.31511)"/><path d="M175.39835,316.60714c1.03846-1.63187,1.86068-2.849,2.88609-4.299.10876-.14005.17024-.28658.24437-.36891.09662-.1073.315-.22237.44868-.1568.16466.08078.12011.35561.06467.49478a4.31075,4.31075,0,0,1-.49595.7982c-.62805.9156-1.258,1.82993-1.91255,2.78a.69665.69665,0,0,0,.56979,1.09281l14.457,0a.2482.2482,0,0,0,.20589-.38733,9.28668,9.28668,0,0,1-1.40471-2.42971c.1744-.47669.52779-.04911.72893.24943.543.806,1.06443,1.62657,1.61555,2.47694a.25288.25288,0,0,0,.21007.11537h4.74041a.18884.18884,0,0,0,.15112-.29561c-.65157-.97167-1.24768-1.87963-1.8758-2.76487-.08158-.115-.28424-.41732-.13155-.53845.61159-.4852,2.10433,2.36966,2.83278,3.469.42558.64228-.35779.87257-.74672.87257H175.81778a.56829.56829,0,0,1-.57778-.57778A1.06666,1.06666,0,0,1,175.39835,316.60714Z" transform="translate(-175.23937 -304.31511)"/></svg>