<svg id="Layer_1" data-name="Layer 1" xmlns="http://www.w3.org/2000/svg" viewBox="0 0 312.58651 312.63528"><title>magnifier</title><path d="M347.386,427.9747c-9.71258-1.30641-16.70508-6.9633-23.381-13.71016-27.97882-28.276-56.20977-56.30231-84.28053-84.48761-1.642-1.64869-2.77665-1.91531-4.86642-.78506a109.94366,109.94366,0,0,1-58.10536,13.35692c-27.03462-1.209-50.91008-10.71247-71.13925-28.84975a110.36059,110.36059,0,0,1-35.64977-62.7461c-5.24777-27.353-1.112-53.43349,12.63936-77.76136a110.83154,110.83154,0,0,1,55.38649-48.96353,108.79059,108.79059,0,0,1,61.28719-7.05488c38.26727,6.6535,66.36292,27.48568,83.94128,62.01455,9.265,18.19908,12.78694,37.77419,11.24711,58.24288a110.75834,110.75834,0,0,1-12.999,45.01846c-1.27522,2.35382-.80056,3.60555.95012,5.34956,27.96529,27.85918,55.77919,55.87089,83.834,83.6393,6.85993,6.78986,12.80054,13.82407,14.1039,23.76869v6.1052c-.18259.67409-.40774,1.33987-.54129,2.02352-1.60263,8.20454-5.47618,15.15852-12.67166,19.47392-4.13523,2.48005-9.07329,3.62144-13.64994,5.36545ZM181.40361,310.51385a81.56879,81.56879,0,0,0-.0106-163.13751c-44.85536-.18919-82.05491,37.05043-81.63724,81.72519C100.17906,274.37812,136.637,310.73087,181.40361,310.51385Z" transform="translate(-67.7676 -115.33942)"/></svg>