<svg data-name="Layer 1" xmlns="http://www.w3.org/2000/svg" viewBox="0 0 312.587 312.635"><path d="M279.618 312.635c-9.712-1.306-16.705-6.963-23.38-13.71-27.98-28.276-56.21-56.302-84.281-84.487-1.642-1.65-2.777-1.916-4.867-.786a109.944 109.944 0 0 1-58.105 13.357c-27.035-1.209-50.91-10.712-71.14-28.85a110.36 110.36 0 0 1-35.649-62.745c-5.248-27.353-1.112-53.434 12.64-77.762A110.832 110.832 0 0 1 70.221 8.69a108.79 108.79 0 0 1 61.287-7.055c38.267 6.653 66.363 27.485 83.941 62.014 9.265 18.2 12.787 37.774 11.248 58.243a110.758 110.758 0 0 1-13 45.019c-1.275 2.353-.8 3.605.95 5.35 27.966 27.858 55.78 55.87 83.835 83.639 6.86 6.79 12.8 13.824 14.104 23.768v6.105c-.183.674-.408 1.34-.542 2.024-1.602 8.204-5.476 15.158-12.671 19.474-4.136 2.48-9.074 3.621-13.65 5.365Zm-165.982-117.46a81.569 81.569 0 0 0-.01-163.138c-44.856-.19-82.056 37.05-81.638 81.725.423 45.277 36.881 81.63 81.648 81.412Z"/></svg>