<svg id="Layer_1" data-name="Layer 1" xmlns="http://www.w3.org/2000/svg" viewBox="0 0 89.6299 87.40557"><title>man</title><path d="M257.31535,215.81871l6.63754-1.27135c0-11.46347.00861-23.08357-.02455-34.70355-.00172-.60287-.195-1.58354-.577-1.74984-5.17116-2.251-3.60482-6.85074-3.92378-10.824-.39413-4.90964-.65725-9.84841-1.41831-14.70544-1.04372-6.661.51677-8.50045,9.22368-9.52136-.47994-5.41257.5221-10.73177,6.50374-12.1485a12.91377,12.91377,0,0,1,9.49158,2.06334c4.33529,3.2145,3.68635,8.11075,1.3819,12.77231,1.73979.96432,3.77588,1.45153,4.75168,2.74107,5.14209,6.79538,11.61846,9.59567,20.20851,8.68673,3.59528-.38042,4.74558,2.77532,4.46619,6.31569-.645,8.17345-1.09094,16.36261-1.61761,24.54539l1.4845.39895c3.23851-5.66086,6.461-11.331,9.72014-16.9799,3.13636-5.436,4.96788-5.44314,8.07729.00208q6.80328,11.914,13.51144,23.8821a39.5698,39.5698,0,0,1,1.73295,4.06443l-1.40742.873a21.70576,21.70576,0,0,1-2.51039-2.92507c-2.29654-3.85741-4.60471-7.71989-6.63571-11.719-1.27476-2.51-2.81167-3.96651-5.784-3.50666-3.47519.53765-8.78975-.29136-10.11569,1.65082-4.04218,5.92079-9.66608,11.84647-7.25737,20.06674,2.4.86811,5.23857,1.10006,6.86029,2.62557,5.59339,5.26157,12.11916,6.26808,19.333,5.636a54.65218,54.65218,0,0,1,7.35257.307l.03031,1.94234c-1.64022.22076-3.27461.563-4.92162.6419-8.51365.40813-16.98492.75167-23.64781-6.20526-.85525-.893-2.74865-1.03461-4.17774-1.08921-4.1566-.15877-8.3509.2087-12.47708-.18677-7.74739-.74253-14.53581.25737-18.56723,7.98431a4.57238,4.57238,0,0,1-1.40136,1.40195C279.04285,218.77127,261.10205,218.41988,257.31535,215.81871ZM293.32,196.85378c.12051-1.4967.31083-2.79386.31237-4.09124a85.33786,85.33786,0,0,0-.185-9.47915c-.52406-4.725-3.67913-7.41507-8.64223-7.0208-5.84812.46458-11.65154,1.49174-17.52657,2.282V207.0958c7.24081.93183,7.21939.9306,7.61531-5.93681.24911-4.32078.691-8.63354.82576-12.95678.097-3.11111,1.319-4.45239,4.55159-4.44376,3.25186.00867,4.40357,1.56,4.68,4.505.273,2.90817.79355,5.79309,1.19158,8.59037Zm8.78767,8.13954,1.53594-.65264V168.23876l-14.32641-3.362c-.67161,6.73056-.44969,6.53532,3.99151,11.58333,1.72043,1.9555,2.64283,4.93847,3.0988,7.59578.52781,3.07593-.543,6.511.3179,9.42437C297.91244,197.49729,300.25822,201.172,302.10765,204.99332Zm-38.24059-39.986c-2.38686,5.51643-1.89856,9.5576.97912,9.73594,4.92231.305,9.87722.08418,15.048.08418v-9.00192l-.98941-.44782-3.41,5.30483-2.65215-6.15011-6.49139,5.24459Zm15.81672-9.39581H263.14542c-1.24709,6.20289-.49405,7.238,5.09688,7.30688q2.99262.03686,5.98607.00092C280.03571,162.85679,280.51926,162.23986,279.68378,155.61154Zm1.50839-3.55159,1.28374-1.24586c-1.06622-1.43984-2.04909-4.04057-3.21268-4.12411-5.9069-.42409-11.86066-.19541-18.0172-.19541v5.56538ZM285.022,208.372c-4.0977-6.75353-.01185-15.26639-5.39357-21.5645a97.07688,97.07688,0,0,0-1.93878,19.59784c.02917,1.81646,2.72765,3.59006,4.35822,5.57385Zm-8.214-64.938c5.94937.05661,6.45009-.24563,6.45843-3.71479a6.55267,6.55267,0,0,0-6.51628-6.65818,6.8519,6.8519,0,0,0-6.62474,6.67232C270.29278,144.96437,274.357,142.99364,276.80805,143.434Zm30.83773,23.31324v38.47059C310.75093,200.92953,310.64281,170.05945,307.64578,166.74723Zm-21.53864,7.10857c0-3.42124-.04867-5.86885.01352-8.31365.06375-2.506.236-5.00933.31446-6.58479l6.00516-.805-6.48241-9.79307C282.21424,160.032,282.05176,170.44482,286.10714,173.8558Zm11.74635,30.3896c-1.30144-4.62195-2.73094-5.0407-11.27712-3.6642C286.244,205.15576,287.34549,205.52873,297.85349,204.2454ZM278.5844,214.757c-.90388-3.965-4.2473-5.46917-9.55461-4.01009-1.023.28124-1.57071,2.29115-2.65808,4.01009Zm14.39534-50.97988c3.78506,0,7.12167.06923,10.43879-.15277.2258-.01511.30524-2.21722.65286-5.00979C300.27168,161.99625,295.25705,156.2972,292.97974,163.77715Zm39.46961,15.11544-4.87583-8.43633-4.7172,8.43633Z" transform="translate(-257.31535 -130.67097)"/><path d="M339.40328,146.49957a8.63317,8.63317,0,0,1-8.85051,8.75022,8.81537,8.81537,0,0,1,.10682-17.63A8.69548,8.69548,0,0,1,339.40328,146.49957Zm-2.7961,1.66463c-.4751-5.41617-2.46306-7.62758-6.21984-7.50194-3.47389.11617-5.54787,2.22038-5.50965,5.77242.0407,3.78277,2.295,6.28924,5.94072,5.60435C333.17249,151.5968,335.1579,149.19205,336.60718,148.1642Z" transform="translate(-257.31535 -130.67097)"/></svg>