<svg xmlns="http://www.w3.org/2000/svg" viewBox="0 0 2023.172 535.44"><path d="M.087 311.101Q.087 157.63 0 4.158C-.003.86.488.001 4.029.001Q1011.592.157 2019.155 0c3.56 0 4.02.892 4.017 4.168q-.152 177.467-.085 354.933c-1.436 4.932-5.711 7.564-8.936 11.054a31.755 31.755 0 0 1-5.872 3.76c-11.686 5.627-23.091 11.8-34.56 17.846-8.708 4.591-17.777 7.39-27.731 6.677-5.35-.153-10.551-1.43-15.813-2.205-8.344-1.229-16.676-1.444-24.82.584-14.58 3.63-29.019 2.02-43.613.201-14.65-1.826-28.855-4.953-42.414-10.882a57.875 57.875 0 0 0-23.906-4.552c-26.604.29-51.841-6.269-76.48-15.171-13.1-4.733-26.228-8.804-40.016-10.396-14.644-1.692-27.93-7.418-41.344-12.895a53.106 53.106 0 0 0-20.52-3.692c-4.998.02-10.005-.177-14.994.045a48.484 48.484 0 0 1-23.358-4.427c-15.697-7.532-32.587-11.726-48.668-18.118-15.227-6.054-31.239-9.458-46.752-14.522a152.285 152.285 0 0 1-19.862-8.14c-29.167-14.312-57.904-29.471-86.916-44.087-29.795-15.01-57.715-33.22-86.097-50.636-14.644-8.986-29.921-16.804-45.318-24.36-11.334-5.561-23.82-7.359-36.117-9.566-7.545-1.355-15.05-2.888-22.54-4.514-20.502-4.45-41.046-3.515-61.529.024-6.475 1.12-12.159 4.71-17.674 8.026-10.808 6.499-22.584 8.54-34.832 9.297-8.59.53-17.083 2.1-23.997 7.493-13.869 10.816-29.178 19.19-44.522 27.584-16.259 8.894-30.587 20.76-46.297 30.514a67.097 67.097 0 0 1-9.28 4.886 77.357 77.357 0 0 0-29.05 21.551c-8.286 9.74-18.79 16.896-28.078 25.45-9.98 9.191-21.67 15.848-33.07 23.076-19.254 12.21-37.575 25.855-54.148 41.656-7.29 8.014-16.385 13.623-25.765 18.688a124.368 124.368 0 0 0-29.281 21.53c-12.851 12.906-27.16 24.053-40.994 35.791-15.623 13.256-31.134 26.671-47.792 38.594-13.408 9.595-26.008 20.428-40.054 28.966-19.985 12.147-42.229 18.548-65.339 22.158-23.03 3.598-46.127 6.38-69.37 8.143-10.315.782-20.554 1.86-30.764-.692a40.987 40.987 0 0 1-7.554-2.588 121.642 121.642 0 0 0-40.842-10.699c-20.302-1.92-39.113-9.337-57.956-16.487-12.058-4.575-22.506-12.255-33.957-17.999-27.418-13.753-53.802-29.333-80.218-44.87-4.288-2.522-9.018-4.291-13.554-6.375a117.9 117.9 0 0 1-30.656-20.336c-12.992-11.884-28.498-20.256-43.547-29.09-24.985-14.665-50.637-28.162-76.147-41.905-20.866-11.241-42.198-21.328-64.624-29.043a11.365 11.365 0 0 1-5.462-3.347Z" style="fill:#f9f9f3" data-name="Layer 2"/></svg>