<svg xmlns="http://www.w3.org/2000/svg" viewBox="0 0 1740 786.6"><path d="M0 648.4V3.9C0 1.8 1.8 0 3.9 0h1732.2c2.2 0 3.9 1.8 3.9 3.9v302.7c0 2.8-3 4.8-5.5 3.5h-.1c-15.4-8.1-31.9-12.9-48.8-16.2-12.3-2.4-24.8-4.2-37.1-6.8-14.7-3.1-29.1-7.1-44.4-6.3-11.2.6-22.5-.2-33.7.2-7.6.3-15.2 1.2-22.6 2.6-15.4 2.8-27.7 12.7-41.7 18.7-7.3 3.2-15.1 5.8-22.9 7.3-6.8 1.4-14 .8-21 1.2-14.3.9-27.5 5.2-38.7 14.2-15.5 12.4-32.5 22.3-49.9 31.8-15.1 8.2-29.5 17.8-44.1 27.1-16.7 10.6-31.5 23.9-50 31.8-16.3 7-30.3 17.1-42.2 30.3-6.9 7.6-14.4 14.8-22.1 21.7-9.4 8.4-19.1 14.4-28.9 22.3-7.4 6.1-47.9 16.4-56 21.5-16.3 10.2-63.7 28.3-68.8 30.9-12.7 6.5-78.1 19.5-90.9 25.8-17 8.4-30.9 21.1-46 32.3-7.2 5.4-14.3 10.8-21.7 15.8-16.1 11.1-32.3 22-48.6 32.9-14.4 9.7-28.7 19.7-43.5 28.9-16.2 10.1-31.7 9.8-48 19.6-15.6 9.4-63.2 30.6-80.8 36.7-19.7 6.8-136.4 28.9-156.6 34.2-15.8 4.1-32.2 5.9-48.4 8.1-15.4 2.1-30.9 3.5-46.3 5.1-4.9.5-9.9.7-14.9 1.2-12.7 1.2-25.3 3-38 3.6s-93.2-3.5-104.9-8.7c-13.2-5.9-89.1-21.3-103.6-22.9-19-2.1-74.6-31.6-104.4-49.8-44.6-27.2-53.5-46.5-63.3-53.6-1-.6-1.6-1.9-1.6-3.2z" fill="#fafaf4"/></svg>